<svg width="1200" height="800" viewBox="0 0 1200 800" fill="none" xmlns="http://www.w3.org/2000/svg">
  <defs>
    <linearGradient id="bg" x1="0" y1="0" x2="1" y2="1">
      <stop offset="0%" stop-color="#f4faf2" />
      <stop offset="100%" stop-color="#dfe8e1" />
    </linearGradient>
    <linearGradient id="water" x1="0" y1="0" x2="1" y2="1">
      <stop offset="0%" stop-color="#9ad3c2" />
      <stop offset="100%" stop-color="#6cb39d" />
    </linearGradient>
  </defs>
  <rect width="1200" height="800" rx="40" fill="url(#bg)" />
  <ellipse cx="600" cy="360" rx="460" ry="220" fill="url(#water)" />
  <ellipse cx="620" cy="350" rx="400" ry="190" fill="rgba(255,255,255,0.15)" />
  <path d="M120 700C180 640 220 560 340 530C440 510 590 480 720 520C830 550 920 590 980 640C1020 680 1060 730 1140 730V800H0V730C60 730 100 720 120 700Z" fill="#acc9ad" />
  <path d="M0 460C80 420 160 380 260 370C360 360 520 360 640 390C760 420 880 460 980 520C1060 570 1120 620 1200 680V800H0V460Z" fill="#d9e8d7" />
  <circle cx="240" cy="280" r="24" fill="#f4faf2" opacity="0.8" />
  <circle cx="360" cy="220" r="18" fill="#f4faf2" opacity="0.8" />
  <circle cx="930" cy="260" r="20" fill="#f4faf2" opacity="0.7" />
  <text x="600" y="120" text-anchor="middle" fill="#154c28" font-family="Inter, system-ui, sans-serif" font-size="46" font-weight="700">Karta jezera</text>
  <text x="600" y="170" text-anchor="middle" fill="#1f4334" font-family="Inter, system-ui, sans-serif" font-size="24">Prilagodite sliku s 24 pozicije u mapi</text>
</svg>
